<mxfile host="app.diagrams.net" modified="2022-03-16T13:41:10.921Z" agent="5.0 (Windows)" etag="YIsaufhhjd8MRBHOi4Ij" version="17.1.3" type="github">
  <diagram id="zPWl2oxNlPUwZ-dZ2ljU" name="Page-1">
    <mxGraphModel dx="868" dy="468" grid="1" gridSize="10" guides="1" tooltips="1" connect="1" arrows="1" fold="1" page="1" pageScale="1" pageWidth="827" pageHeight="1169" math="0" shadow="0">
      <root>
        <mxCell id="0" />
        <mxCell id="1" parent="0" />
        <mxCell id="DVppBhUhBgAf5Pp1-2fO-2" value="INICIO" style="rounded=1;whiteSpace=wrap;html=1;" vertex="1" parent="1">
          <mxGeometry x="260" y="40" width="120" height="60" as="geometry" />
        </mxCell>
        <mxCell id="DVppBhUhBgAf5Pp1-2fO-7" value="" style="edgeStyle=orthogonalEdgeStyle;rounded=0;orthogonalLoop=1;jettySize=auto;html=1;" edge="1" parent="1" source="DVppBhUhBgAf5Pp1-2fO-3" target="DVppBhUhBgAf5Pp1-2fO-4">
          <mxGeometry relative="1" as="geometry" />
        </mxCell>
        <mxCell id="DVppBhUhBgAf5Pp1-2fO-3" value="INFORME OS NUMEROS (NUM1, NUM2)" style="shape=parallelogram;perimeter=parallelogramPerimeter;whiteSpace=wrap;html=1;fixedSize=1;" vertex="1" parent="1">
          <mxGeometry x="260" y="140" width="130" height="70" as="geometry" />
        </mxCell>
        <mxCell id="DVppBhUhBgAf5Pp1-2fO-8" value="" style="edgeStyle=orthogonalEdgeStyle;rounded=0;orthogonalLoop=1;jettySize=auto;html=1;" edge="1" parent="1" source="DVppBhUhBgAf5Pp1-2fO-4" target="DVppBhUhBgAf5Pp1-2fO-5">
          <mxGeometry relative="1" as="geometry" />
        </mxCell>
        <mxCell id="DVppBhUhBgAf5Pp1-2fO-4" value="REALIZE A SOMA" style="rounded=0;whiteSpace=wrap;html=1;" vertex="1" parent="1">
          <mxGeometry x="260" y="240" width="120" height="60" as="geometry" />
        </mxCell>
        <mxCell id="DVppBhUhBgAf5Pp1-2fO-11" value="" style="edgeStyle=orthogonalEdgeStyle;rounded=0;orthogonalLoop=1;jettySize=auto;html=1;" edge="1" parent="1" source="DVppBhUhBgAf5Pp1-2fO-5" target="DVppBhUhBgAf5Pp1-2fO-10">
          <mxGeometry relative="1" as="geometry" />
        </mxCell>
        <mxCell id="DVppBhUhBgAf5Pp1-2fO-5" value="RESULTADO DA SOMA" style="shape=document;whiteSpace=wrap;html=1;boundedLbl=1;" vertex="1" parent="1">
          <mxGeometry x="260" y="340" width="120" height="80" as="geometry" />
        </mxCell>
        <mxCell id="DVppBhUhBgAf5Pp1-2fO-6" value="" style="curved=1;endArrow=classic;html=1;rounded=0;exitX=0.5;exitY=1;exitDx=0;exitDy=0;entryX=0.5;entryY=0;entryDx=0;entryDy=0;" edge="1" parent="1" source="DVppBhUhBgAf5Pp1-2fO-2" target="DVppBhUhBgAf5Pp1-2fO-3">
          <mxGeometry width="50" height="50" relative="1" as="geometry">
            <mxPoint x="390" y="270" as="sourcePoint" />
            <mxPoint x="440" y="220" as="targetPoint" />
            <Array as="points">
              <mxPoint x="320" y="120" />
            </Array>
          </mxGeometry>
        </mxCell>
        <mxCell id="DVppBhUhBgAf5Pp1-2fO-10" value="SAÍDA" style="rounded=0;whiteSpace=wrap;html=1;" vertex="1" parent="1">
          <mxGeometry x="260" y="470" width="120" height="60" as="geometry" />
        </mxCell>
      </root>
    </mxGraphModel>
  </diagram>
</mxfile>
